# xmcd CD database file
#
# Track frame offsets:
#	150
#	31175
#	61110
#	88437
#	119892
#
# Disc length: 2172 seconds
#
# Revision: 0
# Processed by: cddbd v1.5.2PL0 Copyright (c) Steve Scherf et al.
# Submitted via: CDex 1.70beta2
#
DISCID=42087a05
DTITLE=Pike, Dave - Pike's Peak
DYEAR=1962
DGENRE=Jazz
TTITLE0=why not
TTITLE1=in a sentimantal mood
TTITLE2=vierd blues
TTITLE3=besame mucho
TTITLE4=wild is the wind
EXTD=YEAR: 1962
EXTT0=
EXTT1=
EXTT2=
EXTT3=
EXTT4=
PLAYORDER=
